<mxfile host="app.diagrams.net" agent="Mozilla/5.0 (Windows NT 10.0; Win64; x64) AppleWebKit/537.36 (KHTML, like Gecko) Chrome/136.0.0.0 Safari/537.36 Edg/136.0.0.0" version="26.2.12">
  <diagram name="Page-1" id="Wc5Nqwy4IlV76U9w1YUd">
    <mxGraphModel dx="2920" dy="2329" grid="1" gridSize="10" guides="1" tooltips="1" connect="1" arrows="1" fold="1" page="1" pageScale="1" pageWidth="827" pageHeight="1169" math="0" shadow="0">
      <root>
        <mxCell id="0" />
        <mxCell id="1" parent="0" />
        <mxCell id="C_35eXqd0JHR1h2Q_Rmn-3" value="Web/API Layer" style="shape=folder;fontStyle=1;spacingTop=10;tabWidth=40;tabHeight=14;tabPosition=left;html=1;whiteSpace=wrap;align=left;verticalAlign=top;" parent="1" vertex="1">
          <mxGeometry x="160" y="100" width="580" height="370" as="geometry" />
        </mxCell>
        <mxCell id="C_35eXqd0JHR1h2Q_Rmn-4" value="&amp;lt;&amp;lt;component&amp;gt;&amp;gt;&lt;div&gt;AktivnostController&lt;/div&gt;" style="html=1;whiteSpace=wrap;" parent="1" vertex="1">
          <mxGeometry x="190" y="150" width="110" height="50" as="geometry" />
        </mxCell>
        <mxCell id="C_35eXqd0JHR1h2Q_Rmn-5" value="&amp;lt;&amp;lt;component&amp;gt;&amp;gt;&lt;div&gt;UserController&lt;/div&gt;" style="html=1;whiteSpace=wrap;" parent="1" vertex="1">
          <mxGeometry x="190" y="230" width="110" height="50" as="geometry" />
        </mxCell>
        <mxCell id="C_35eXqd0JHR1h2Q_Rmn-6" value="&amp;lt;&amp;lt;component&amp;gt;&amp;gt;&lt;div&gt;StatistikaController&lt;/div&gt;" style="html=1;whiteSpace=wrap;" parent="1" vertex="1">
          <mxGeometry x="570" y="150" width="110" height="50" as="geometry" />
        </mxCell>
        <mxCell id="C_35eXqd0JHR1h2Q_Rmn-7" value="&amp;lt;&amp;lt;component&amp;gt;&amp;gt;&lt;div&gt;PlanController&lt;/div&gt;" style="html=1;whiteSpace=wrap;" parent="1" vertex="1">
          <mxGeometry x="190" y="310" width="110" height="50" as="geometry" />
        </mxCell>
        <mxCell id="C_35eXqd0JHR1h2Q_Rmn-8" value="&amp;lt;&amp;lt;component&amp;gt;&amp;gt;&lt;div&gt;NamirnicaController&lt;/div&gt;" style="html=1;whiteSpace=wrap;" parent="1" vertex="1">
          <mxGeometry x="370" y="310" width="110" height="50" as="geometry" />
        </mxCell>
        <mxCell id="C_35eXqd0JHR1h2Q_Rmn-9" value="&amp;lt;&amp;lt;component&amp;gt;&amp;gt;&lt;div&gt;KlijentTrenerController&lt;/div&gt;" style="html=1;whiteSpace=wrap;" parent="1" vertex="1">
          <mxGeometry x="360" y="390" width="130" height="50" as="geometry" />
        </mxCell>
        <mxCell id="C_35eXqd0JHR1h2Q_Rmn-10" value="&amp;lt;&amp;lt;component&amp;gt;&amp;gt;&lt;div&gt;KlijentController&lt;/div&gt;" style="html=1;whiteSpace=wrap;" parent="1" vertex="1">
          <mxGeometry x="370" y="230" width="110" height="50" as="geometry" />
        </mxCell>
        <mxCell id="C_35eXqd0JHR1h2Q_Rmn-11" value="&amp;lt;&amp;lt;component&amp;gt;&amp;gt;&lt;div&gt;SifrarnikAktivnostiController&lt;/div&gt;" style="html=1;whiteSpace=wrap;" parent="1" vertex="1">
          <mxGeometry x="340" y="150" width="170" height="50" as="geometry" />
        </mxCell>
        <mxCell id="C_35eXqd0JHR1h2Q_Rmn-12" value="&amp;lt;&amp;lt;component&amp;gt;&amp;gt;&lt;div&gt;AuthController&lt;/div&gt;" style="html=1;whiteSpace=wrap;" parent="1" vertex="1">
          <mxGeometry x="570" y="230" width="110" height="50" as="geometry" />
        </mxCell>
        <mxCell id="C_35eXqd0JHR1h2Q_Rmn-13" value="&amp;lt;&amp;lt;component&amp;gt;&amp;gt;&lt;div&gt;PrehrambeniDnevnikController&lt;/div&gt;" style="html=1;whiteSpace=wrap;" parent="1" vertex="1">
          <mxGeometry x="540" y="310" width="170" height="50" as="geometry" />
        </mxCell>
        <mxCell id="C_35eXqd0JHR1h2Q_Rmn-14" value="&amp;lt;&amp;lt;component&amp;gt;&amp;gt;&lt;div&gt;TreneriController&lt;/div&gt;" style="html=1;whiteSpace=wrap;" parent="1" vertex="1">
          <mxGeometry x="190" y="390" width="110" height="50" as="geometry" />
        </mxCell>
        <mxCell id="C_35eXqd0JHR1h2Q_Rmn-15" value="Service Layer" style="shape=folder;fontStyle=1;spacingTop=10;tabWidth=40;tabHeight=14;tabPosition=left;html=1;whiteSpace=wrap;align=left;verticalAlign=top;" parent="1" vertex="1">
          <mxGeometry x="827" y="90" width="253" height="200" as="geometry" />
        </mxCell>
        <mxCell id="C_35eXqd0JHR1h2Q_Rmn-16" value="&amp;lt;&amp;lt;component&amp;gt;&amp;gt;&lt;div&gt;AuthService&lt;/div&gt;" style="html=1;whiteSpace=wrap;" parent="1" vertex="1">
          <mxGeometry x="870" y="230" width="110" height="50" as="geometry" />
        </mxCell>
        <mxCell id="C_35eXqd0JHR1h2Q_Rmn-21" value="Security" style="shape=folder;fontStyle=1;spacingTop=10;tabWidth=40;tabHeight=14;tabPosition=left;html=1;whiteSpace=wrap;align=left;verticalAlign=top;" parent="1" vertex="1">
          <mxGeometry x="827" y="330" width="333" height="210" as="geometry" />
        </mxCell>
        <mxCell id="C_35eXqd0JHR1h2Q_Rmn-44" value="includes" style="edgeStyle=orthogonalEdgeStyle;rounded=0;orthogonalLoop=1;jettySize=auto;html=1;exitX=0.5;exitY=1;exitDx=0;exitDy=0;" parent="1" source="C_35eXqd0JHR1h2Q_Rmn-22" target="C_35eXqd0JHR1h2Q_Rmn-23" edge="1">
          <mxGeometry relative="1" as="geometry" />
        </mxCell>
        <mxCell id="C_35eXqd0JHR1h2Q_Rmn-22" value="&amp;lt;&amp;lt;component&amp;gt;&amp;gt;&lt;div&gt;SecurityConfig&lt;/div&gt;" style="html=1;whiteSpace=wrap;" parent="1" vertex="1">
          <mxGeometry x="850" y="380" width="110" height="50" as="geometry" />
        </mxCell>
        <mxCell id="C_35eXqd0JHR1h2Q_Rmn-23" value="&amp;lt;&amp;lt;component&amp;gt;&amp;gt;&lt;div&gt;JwtAuthFilter&lt;/div&gt;" style="html=1;whiteSpace=wrap;" parent="1" vertex="1">
          <mxGeometry x="850" y="460" width="110" height="50" as="geometry" />
        </mxCell>
        <mxCell id="C_35eXqd0JHR1h2Q_Rmn-24" value="&amp;lt;&amp;lt;component&amp;gt;&amp;gt;&lt;div&gt;JwtService&lt;/div&gt;" style="html=1;whiteSpace=wrap;" parent="1" vertex="1">
          <mxGeometry x="1010" y="460" width="110" height="50" as="geometry" />
        </mxCell>
        <mxCell id="C_35eXqd0JHR1h2Q_Rmn-25" value="&amp;lt;&amp;lt;component&amp;gt;&amp;gt;&lt;div&gt;PasswordConfig&lt;/div&gt;" style="html=1;whiteSpace=wrap;" parent="1" vertex="1">
          <mxGeometry x="1010" y="380" width="110" height="50" as="geometry" />
        </mxCell>
        <mxCell id="C_35eXqd0JHR1h2Q_Rmn-29" value="" style="ellipse;whiteSpace=wrap;html=1;align=center;aspect=fixed;fillColor=none;strokeColor=none;resizable=0;perimeter=centerPerimeter;rotatable=0;allowArrows=0;points=[];outlineConnect=1;" parent="1" vertex="1">
          <mxGeometry x="925" y="380" width="10" height="10" as="geometry" />
        </mxCell>
        <mxCell id="C_35eXqd0JHR1h2Q_Rmn-32" value="" style="ellipse;whiteSpace=wrap;html=1;align=center;aspect=fixed;fillColor=none;strokeColor=none;resizable=0;perimeter=centerPerimeter;rotatable=0;allowArrows=0;points=[];outlineConnect=1;" parent="1" vertex="1">
          <mxGeometry x="925" y="380" width="10" height="10" as="geometry" />
        </mxCell>
        <mxCell id="C_35eXqd0JHR1h2Q_Rmn-33" value="" style="rounded=0;orthogonalLoop=1;jettySize=auto;html=1;endArrow=halfCircle;endFill=0;endSize=6;strokeWidth=1;sketch=0;exitX=1;exitY=0.5;exitDx=0;exitDy=0;" parent="1" source="C_35eXqd0JHR1h2Q_Rmn-12" edge="1">
          <mxGeometry relative="1" as="geometry">
            <mxPoint x="950" y="385" as="sourcePoint" />
            <mxPoint x="770" y="255" as="targetPoint" />
          </mxGeometry>
        </mxCell>
        <mxCell id="C_35eXqd0JHR1h2Q_Rmn-34" value="" style="rounded=0;orthogonalLoop=1;jettySize=auto;html=1;endArrow=oval;endFill=0;sketch=0;sourcePerimeterSpacing=0;targetPerimeterSpacing=0;endSize=10;exitX=0;exitY=0.5;exitDx=0;exitDy=0;" parent="1" source="C_35eXqd0JHR1h2Q_Rmn-16" edge="1">
          <mxGeometry relative="1" as="geometry">
            <mxPoint x="910" y="385" as="sourcePoint" />
            <mxPoint x="770" y="255" as="targetPoint" />
          </mxGeometry>
        </mxCell>
        <mxCell id="C_35eXqd0JHR1h2Q_Rmn-35" value="" style="ellipse;whiteSpace=wrap;html=1;align=center;aspect=fixed;fillColor=none;strokeColor=none;resizable=0;perimeter=centerPerimeter;rotatable=0;allowArrows=0;points=[];outlineConnect=1;" parent="1" vertex="1">
          <mxGeometry x="925" y="380" width="10" height="10" as="geometry" />
        </mxCell>
        <mxCell id="C_35eXqd0JHR1h2Q_Rmn-36" value="" style="rounded=0;orthogonalLoop=1;jettySize=auto;html=1;endArrow=halfCircle;endFill=0;endSize=6;strokeWidth=1;sketch=0;exitX=1;exitY=0.5;exitDx=0;exitDy=0;" parent="1" source="C_35eXqd0JHR1h2Q_Rmn-16" edge="1">
          <mxGeometry relative="1" as="geometry">
            <mxPoint x="950" y="385" as="sourcePoint" />
            <mxPoint x="1240" y="300" as="targetPoint" />
            <Array as="points">
              <mxPoint x="1240" y="255" />
            </Array>
          </mxGeometry>
        </mxCell>
        <mxCell id="C_35eXqd0JHR1h2Q_Rmn-37" value="" style="rounded=0;orthogonalLoop=1;jettySize=auto;html=1;endArrow=oval;endFill=0;sketch=0;sourcePerimeterSpacing=0;targetPerimeterSpacing=0;endSize=10;exitX=1;exitY=0.5;exitDx=0;exitDy=0;" parent="1" source="C_35eXqd0JHR1h2Q_Rmn-24" edge="1">
          <mxGeometry relative="1" as="geometry">
            <mxPoint x="1270" y="200" as="sourcePoint" />
            <mxPoint x="1240" y="300" as="targetPoint" />
            <Array as="points">
              <mxPoint x="1240" y="485" />
            </Array>
          </mxGeometry>
        </mxCell>
        <mxCell id="C_35eXqd0JHR1h2Q_Rmn-38" value="" style="ellipse;whiteSpace=wrap;html=1;align=center;aspect=fixed;fillColor=none;strokeColor=none;resizable=0;perimeter=centerPerimeter;rotatable=0;allowArrows=0;points=[];outlineConnect=1;" parent="1" vertex="1">
          <mxGeometry x="1280" y="480" width="10" height="10" as="geometry" />
        </mxCell>
        <mxCell id="C_35eXqd0JHR1h2Q_Rmn-39" value="" style="rounded=0;orthogonalLoop=1;jettySize=auto;html=1;endArrow=halfCircle;endFill=0;endSize=6;strokeWidth=1;sketch=0;exitX=1;exitY=0.5;exitDx=0;exitDy=0;" parent="1" source="C_35eXqd0JHR1h2Q_Rmn-23" target="C_35eXqd0JHR1h2Q_Rmn-41" edge="1">
          <mxGeometry relative="1" as="geometry">
            <mxPoint x="960" y="425" as="sourcePoint" />
          </mxGeometry>
        </mxCell>
        <mxCell id="C_35eXqd0JHR1h2Q_Rmn-40" value="" style="rounded=0;orthogonalLoop=1;jettySize=auto;html=1;endArrow=oval;endFill=0;sketch=0;sourcePerimeterSpacing=0;targetPerimeterSpacing=0;endSize=10;exitX=0;exitY=0.5;exitDx=0;exitDy=0;entryX=0.466;entryY=0.4;entryDx=0;entryDy=0;entryPerimeter=0;" parent="1" source="C_35eXqd0JHR1h2Q_Rmn-24" target="C_35eXqd0JHR1h2Q_Rmn-41" edge="1">
          <mxGeometry relative="1" as="geometry">
            <mxPoint x="920" y="425" as="sourcePoint" />
          </mxGeometry>
        </mxCell>
        <mxCell id="C_35eXqd0JHR1h2Q_Rmn-41" value="" style="ellipse;whiteSpace=wrap;html=1;align=center;aspect=fixed;fillColor=none;strokeColor=none;resizable=0;perimeter=centerPerimeter;rotatable=0;allowArrows=0;points=[];outlineConnect=1;" parent="1" vertex="1">
          <mxGeometry x="980" y="480" width="10" height="10" as="geometry" />
        </mxCell>
        <mxCell id="C_35eXqd0JHR1h2Q_Rmn-45" value="Persistence Layer" style="shape=folder;fontStyle=1;spacingTop=10;tabWidth=40;tabHeight=14;tabPosition=left;html=1;whiteSpace=wrap;align=left;verticalAlign=top;" parent="1" vertex="1">
          <mxGeometry x="40" y="530" width="720" height="370" as="geometry" />
        </mxCell>
        <mxCell id="C_35eXqd0JHR1h2Q_Rmn-47" value="&amp;lt;&amp;lt;component&amp;gt;&amp;gt;&lt;div&gt;UnosNamirniceRepository&lt;/div&gt;" style="html=1;whiteSpace=wrap;" parent="1" vertex="1">
          <mxGeometry x="70" y="570" width="150" height="50" as="geometry" />
        </mxCell>
        <mxCell id="C_35eXqd0JHR1h2Q_Rmn-48" value="&amp;lt;&amp;lt;component&amp;gt;&amp;gt;&lt;div&gt;KorisnikAktivnostRepository&lt;/div&gt;" style="html=1;whiteSpace=wrap;" parent="1" vertex="1">
          <mxGeometry x="70" y="650" width="150" height="50" as="geometry" />
        </mxCell>
        <mxCell id="C_35eXqd0JHR1h2Q_Rmn-49" value="&amp;lt;&amp;lt;component&amp;gt;&amp;gt;&lt;div&gt;KorisnikRepository&lt;/div&gt;" style="html=1;whiteSpace=wrap;" parent="1" vertex="1">
          <mxGeometry x="70" y="720" width="150" height="50" as="geometry" />
        </mxCell>
        <mxCell id="C_35eXqd0JHR1h2Q_Rmn-50" value="&amp;lt;&amp;lt;component&amp;gt;&amp;gt;&lt;div&gt;KlijentPlanRepository&lt;/div&gt;" style="html=1;whiteSpace=wrap;" parent="1" vertex="1">
          <mxGeometry x="70" y="800" width="150" height="50" as="geometry" />
        </mxCell>
        <mxCell id="C_35eXqd0JHR1h2Q_Rmn-51" value="&amp;lt;&amp;lt;component&amp;gt;&amp;gt;&lt;div&gt;KlijentRepository&lt;/div&gt;" style="html=1;whiteSpace=wrap;" parent="1" vertex="1">
          <mxGeometry x="295" y="650" width="150" height="50" as="geometry" />
        </mxCell>
        <mxCell id="C_35eXqd0JHR1h2Q_Rmn-52" value="&amp;lt;&amp;lt;component&amp;gt;&amp;gt;&lt;div&gt;PrehrambeniDnevnikRepository&lt;/div&gt;" style="html=1;whiteSpace=wrap;" parent="1" vertex="1">
          <mxGeometry x="280" y="570" width="180" height="50" as="geometry" />
        </mxCell>
        <mxCell id="C_35eXqd0JHR1h2Q_Rmn-54" value="&amp;lt;&amp;lt;component&amp;gt;&amp;gt;&lt;div&gt;KlijentTrenerRepository&lt;/div&gt;" style="html=1;whiteSpace=wrap;" parent="1" vertex="1">
          <mxGeometry x="295" y="720" width="150" height="50" as="geometry" />
        </mxCell>
        <mxCell id="C_35eXqd0JHR1h2Q_Rmn-55" value="&amp;lt;&amp;lt;component&amp;gt;&amp;gt;&lt;div&gt;TrenerRepository&lt;/div&gt;" style="html=1;whiteSpace=wrap;" parent="1" vertex="1">
          <mxGeometry x="295" y="800" width="150" height="50" as="geometry" />
        </mxCell>
        <mxCell id="C_35eXqd0JHR1h2Q_Rmn-56" value="&amp;lt;&amp;lt;component&amp;gt;&amp;gt;&lt;div&gt;PlanRepository&lt;/div&gt;" style="html=1;whiteSpace=wrap;" parent="1" vertex="1">
          <mxGeometry x="530" y="650" width="150" height="50" as="geometry" />
        </mxCell>
        <mxCell id="C_35eXqd0JHR1h2Q_Rmn-57" value="&amp;lt;&amp;lt;component&amp;gt;&amp;gt;&lt;div&gt;AktivnostRepository&lt;/div&gt;" style="html=1;whiteSpace=wrap;" parent="1" vertex="1">
          <mxGeometry x="530" y="570" width="150" height="50" as="geometry" />
        </mxCell>
        <mxCell id="C_35eXqd0JHR1h2Q_Rmn-58" value="&amp;lt;&amp;lt;component&amp;gt;&amp;gt;&lt;div&gt;NamirnicaRepository&lt;/div&gt;" style="html=1;whiteSpace=wrap;" parent="1" vertex="1">
          <mxGeometry x="530" y="720" width="150" height="50" as="geometry" />
        </mxCell>
        <mxCell id="C_35eXqd0JHR1h2Q_Rmn-61" value="" style="rounded=0;orthogonalLoop=1;jettySize=auto;html=1;endArrow=halfCircle;endFill=0;endSize=6;strokeWidth=1;sketch=0;exitX=0.75;exitY=0;exitDx=0;exitDy=0;" parent="1" source="mH-T5WSp_6Dl2nH88OjS-1" edge="1">
          <mxGeometry relative="1" as="geometry">
            <mxPoint x="680" y="520" as="sourcePoint" />
            <mxPoint x="620" y="40" as="targetPoint" />
            <Array as="points">
              <mxPoint x="953" y="40" />
              <mxPoint x="770" y="40" />
            </Array>
          </mxGeometry>
        </mxCell>
        <mxCell id="C_35eXqd0JHR1h2Q_Rmn-62" value="" style="rounded=0;orthogonalLoop=1;jettySize=auto;html=1;endArrow=oval;endFill=0;sketch=0;sourcePerimeterSpacing=0;targetPerimeterSpacing=0;endSize=10;exitX=0.5;exitY=0;exitDx=0;exitDy=0;" parent="1" source="C_35eXqd0JHR1h2Q_Rmn-47" edge="1">
          <mxGeometry relative="1" as="geometry">
            <mxPoint x="560" y="40" as="sourcePoint" />
            <mxPoint x="620" y="40" as="targetPoint" />
            <Array as="points">
              <mxPoint x="145" y="40" />
            </Array>
          </mxGeometry>
        </mxCell>
        <mxCell id="C_35eXqd0JHR1h2Q_Rmn-63" value="" style="ellipse;whiteSpace=wrap;html=1;align=center;aspect=fixed;fillColor=none;strokeColor=none;resizable=0;perimeter=centerPerimeter;rotatable=0;allowArrows=0;points=[];outlineConnect=1;" parent="1" vertex="1">
          <mxGeometry x="495" y="370" width="10" height="10" as="geometry" />
        </mxCell>
        <mxCell id="C_35eXqd0JHR1h2Q_Rmn-64" value="" style="rounded=0;orthogonalLoop=1;jettySize=auto;html=1;endArrow=halfCircle;endFill=0;endSize=6;strokeWidth=1;sketch=0;exitX=0.5;exitY=0;exitDx=0;exitDy=0;" parent="1" source="mH-T5WSp_6Dl2nH88OjS-1" edge="1">
          <mxGeometry relative="1" as="geometry">
            <mxPoint x="935" y="160" as="sourcePoint" />
            <mxPoint x="550" y="20" as="targetPoint" />
            <Array as="points">
              <mxPoint x="925" y="20" />
            </Array>
          </mxGeometry>
        </mxCell>
        <mxCell id="C_35eXqd0JHR1h2Q_Rmn-65" value="" style="rounded=0;orthogonalLoop=1;jettySize=auto;html=1;endArrow=oval;endFill=0;sketch=0;sourcePerimeterSpacing=0;targetPerimeterSpacing=0;endSize=10;exitX=0;exitY=0.5;exitDx=0;exitDy=0;" parent="1" source="C_35eXqd0JHR1h2Q_Rmn-48" edge="1">
          <mxGeometry relative="1" as="geometry">
            <mxPoint x="-10" y="590" as="sourcePoint" />
            <mxPoint x="550" y="20" as="targetPoint" />
            <Array as="points">
              <mxPoint y="675" />
              <mxPoint y="20" />
            </Array>
          </mxGeometry>
        </mxCell>
        <mxCell id="C_35eXqd0JHR1h2Q_Rmn-66" value="" style="rounded=0;orthogonalLoop=1;jettySize=auto;html=1;endArrow=halfCircle;endFill=0;endSize=6;strokeWidth=1;sketch=0;exitX=0.25;exitY=0;exitDx=0;exitDy=0;" parent="1" source="mH-T5WSp_6Dl2nH88OjS-1" edge="1">
          <mxGeometry relative="1" as="geometry">
            <mxPoint x="963" y="160" as="sourcePoint" />
            <mxPoint x="510" as="targetPoint" />
            <Array as="points">
              <mxPoint x="898" />
            </Array>
          </mxGeometry>
        </mxCell>
        <mxCell id="C_35eXqd0JHR1h2Q_Rmn-67" value="" style="rounded=0;orthogonalLoop=1;jettySize=auto;html=1;endArrow=oval;endFill=0;sketch=0;sourcePerimeterSpacing=0;targetPerimeterSpacing=0;endSize=10;exitX=0.5;exitY=0;exitDx=0;exitDy=0;" parent="1" source="C_35eXqd0JHR1h2Q_Rmn-52" edge="1">
          <mxGeometry relative="1" as="geometry">
            <mxPoint x="155" y="580" as="sourcePoint" />
            <mxPoint x="510" as="targetPoint" />
            <Array as="points">
              <mxPoint x="370" y="490" />
              <mxPoint x="80" y="490" />
              <mxPoint x="80" />
            </Array>
          </mxGeometry>
        </mxCell>
        <mxCell id="C_35eXqd0JHR1h2Q_Rmn-68" value="" style="rounded=0;orthogonalLoop=1;jettySize=auto;html=1;endArrow=oval;endFill=0;sketch=0;sourcePerimeterSpacing=0;targetPerimeterSpacing=0;endSize=10;exitX=0;exitY=0.5;exitDx=0;exitDy=0;" parent="1" source="C_35eXqd0JHR1h2Q_Rmn-49" edge="1">
          <mxGeometry relative="1" as="geometry">
            <mxPoint x="-140" y="570" as="sourcePoint" />
            <mxPoint x="-50" y="390" as="targetPoint" />
            <Array as="points">
              <mxPoint x="-50" y="745" />
              <mxPoint x="-50" y="430" />
            </Array>
          </mxGeometry>
        </mxCell>
        <mxCell id="C_35eXqd0JHR1h2Q_Rmn-69" value="" style="rounded=0;orthogonalLoop=1;jettySize=auto;html=1;endArrow=halfCircle;endFill=0;endSize=6;strokeWidth=1;sketch=0;exitX=0;exitY=0.5;exitDx=0;exitDy=0;" parent="1" source="C_35eXqd0JHR1h2Q_Rmn-5" edge="1">
          <mxGeometry relative="1" as="geometry">
            <mxPoint x="935" y="160" as="sourcePoint" />
            <mxPoint x="-50" y="390" as="targetPoint" />
            <Array as="points">
              <mxPoint x="-50" y="255" />
            </Array>
          </mxGeometry>
        </mxCell>
        <mxCell id="C_35eXqd0JHR1h2Q_Rmn-70" value="" style="rounded=0;orthogonalLoop=1;jettySize=auto;html=1;endArrow=halfCircle;endFill=0;endSize=6;strokeWidth=1;sketch=0;exitX=1;exitY=0.5;exitDx=0;exitDy=0;" parent="1" source="C_35eXqd0JHR1h2Q_Rmn-13" edge="1">
          <mxGeometry relative="1" as="geometry">
            <mxPoint x="690" y="265" as="sourcePoint" />
            <mxPoint x="460" y="510" as="targetPoint" />
            <Array as="points">
              <mxPoint x="780" y="335" />
              <mxPoint x="780" y="510" />
            </Array>
          </mxGeometry>
        </mxCell>
        <mxCell id="C_35eXqd0JHR1h2Q_Rmn-71" value="" style="rounded=0;orthogonalLoop=1;jettySize=auto;html=1;endArrow=oval;endFill=0;sketch=0;sourcePerimeterSpacing=0;targetPerimeterSpacing=0;endSize=10;exitX=0.75;exitY=0;exitDx=0;exitDy=0;" parent="1" source="C_35eXqd0JHR1h2Q_Rmn-52" edge="1">
          <mxGeometry relative="1" as="geometry">
            <mxPoint x="880" y="265" as="sourcePoint" />
            <mxPoint x="460" y="510" as="targetPoint" />
            <Array as="points">
              <mxPoint x="415" y="510" />
            </Array>
          </mxGeometry>
        </mxCell>
        <mxCell id="C_35eXqd0JHR1h2Q_Rmn-72" value="" style="rounded=0;orthogonalLoop=1;jettySize=auto;html=1;endArrow=halfCircle;endFill=0;endSize=6;strokeWidth=1;sketch=0;exitX=1;exitY=0.5;exitDx=0;exitDy=0;" parent="1" source="C_35eXqd0JHR1h2Q_Rmn-10" edge="1">
          <mxGeometry relative="1" as="geometry">
            <mxPoint x="690" y="265" as="sourcePoint" />
            <mxPoint x="510" y="490" as="targetPoint" />
            <Array as="points">
              <mxPoint x="510" y="255" />
            </Array>
          </mxGeometry>
        </mxCell>
        <mxCell id="C_35eXqd0JHR1h2Q_Rmn-73" value="" style="rounded=0;orthogonalLoop=1;jettySize=auto;html=1;endArrow=oval;endFill=0;sketch=0;sourcePerimeterSpacing=0;targetPerimeterSpacing=0;endSize=10;exitX=1;exitY=0.5;exitDx=0;exitDy=0;" parent="1" source="C_35eXqd0JHR1h2Q_Rmn-51" edge="1">
          <mxGeometry relative="1" as="geometry">
            <mxPoint x="880" y="265" as="sourcePoint" />
            <mxPoint x="510" y="490" as="targetPoint" />
            <Array as="points">
              <mxPoint x="510" y="675" />
            </Array>
          </mxGeometry>
        </mxCell>
        <mxCell id="C_35eXqd0JHR1h2Q_Rmn-74" value="" style="rounded=0;orthogonalLoop=1;jettySize=auto;html=1;endArrow=halfCircle;endFill=0;endSize=6;strokeWidth=1;sketch=0;exitX=0;exitY=0.5;exitDx=0;exitDy=0;" parent="1" source="C_35eXqd0JHR1h2Q_Rmn-9" edge="1">
          <mxGeometry relative="1" as="geometry">
            <mxPoint x="490" y="265" as="sourcePoint" />
            <mxPoint x="280" y="510" as="targetPoint" />
            <Array as="points">
              <mxPoint x="320" y="415" />
              <mxPoint x="320" y="510" />
            </Array>
          </mxGeometry>
        </mxCell>
        <mxCell id="C_35eXqd0JHR1h2Q_Rmn-75" value="" style="rounded=0;orthogonalLoop=1;jettySize=auto;html=1;endArrow=oval;endFill=0;sketch=0;sourcePerimeterSpacing=0;targetPerimeterSpacing=0;endSize=10;exitX=0;exitY=0.5;exitDx=0;exitDy=0;" parent="1" source="C_35eXqd0JHR1h2Q_Rmn-54" edge="1">
          <mxGeometry relative="1" as="geometry">
            <mxPoint x="455" y="685" as="sourcePoint" />
            <mxPoint x="280" y="510" as="targetPoint" />
            <Array as="points">
              <mxPoint x="250" y="745" />
              <mxPoint x="250" y="510" />
            </Array>
          </mxGeometry>
        </mxCell>
        <mxCell id="C_35eXqd0JHR1h2Q_Rmn-76" value="" style="rounded=0;orthogonalLoop=1;jettySize=auto;html=1;endArrow=halfCircle;endFill=0;endSize=6;strokeWidth=1;sketch=0;exitX=0;exitY=0.5;exitDx=0;exitDy=0;" parent="1" source="C_35eXqd0JHR1h2Q_Rmn-14" edge="1">
          <mxGeometry relative="1" as="geometry">
            <mxPoint x="200" y="265" as="sourcePoint" />
            <mxPoint x="-110" y="610" as="targetPoint" />
            <Array as="points">
              <mxPoint x="-110" y="415" />
            </Array>
          </mxGeometry>
        </mxCell>
        <mxCell id="C_35eXqd0JHR1h2Q_Rmn-77" value="" style="rounded=0;orthogonalLoop=1;jettySize=auto;html=1;endArrow=oval;endFill=0;sketch=0;sourcePerimeterSpacing=0;targetPerimeterSpacing=0;endSize=10;exitX=0.5;exitY=1;exitDx=0;exitDy=0;" parent="1" source="C_35eXqd0JHR1h2Q_Rmn-55" edge="1">
          <mxGeometry relative="1" as="geometry">
            <mxPoint x="80" y="755" as="sourcePoint" />
            <mxPoint x="-110" y="610" as="targetPoint" />
            <Array as="points">
              <mxPoint x="370" y="920" />
              <mxPoint x="-110" y="920" />
            </Array>
          </mxGeometry>
        </mxCell>
        <mxCell id="C_35eXqd0JHR1h2Q_Rmn-78" value="" style="rounded=0;orthogonalLoop=1;jettySize=auto;html=1;endArrow=halfCircle;endFill=0;endSize=6;strokeWidth=1;sketch=0;exitX=0;exitY=0.5;exitDx=0;exitDy=0;" parent="1" source="C_35eXqd0JHR1h2Q_Rmn-4" edge="1">
          <mxGeometry relative="1" as="geometry">
            <mxPoint x="200" y="265" as="sourcePoint" />
            <mxPoint x="-160" y="690" as="targetPoint" />
            <Array as="points">
              <mxPoint x="-160" y="175" />
            </Array>
          </mxGeometry>
        </mxCell>
        <mxCell id="C_35eXqd0JHR1h2Q_Rmn-79" value="" style="rounded=0;orthogonalLoop=1;jettySize=auto;html=1;endArrow=oval;endFill=0;sketch=0;sourcePerimeterSpacing=0;targetPerimeterSpacing=0;endSize=10;exitX=1;exitY=0.5;exitDx=0;exitDy=0;" parent="1" source="C_35eXqd0JHR1h2Q_Rmn-57" edge="1">
          <mxGeometry relative="1" as="geometry">
            <mxPoint x="380" y="860" as="sourcePoint" />
            <mxPoint x="-160" y="690" as="targetPoint" />
            <Array as="points">
              <mxPoint x="830" y="595" />
              <mxPoint x="830" y="960" />
              <mxPoint x="-160" y="960" />
            </Array>
          </mxGeometry>
        </mxCell>
        <mxCell id="C_35eXqd0JHR1h2Q_Rmn-80" value="" style="rounded=0;orthogonalLoop=1;jettySize=auto;html=1;endArrow=halfCircle;endFill=0;endSize=6;strokeWidth=1;sketch=0;exitX=0.5;exitY=0;exitDx=0;exitDy=0;" parent="1" source="C_35eXqd0JHR1h2Q_Rmn-11" edge="1">
          <mxGeometry relative="1" as="geometry">
            <mxPoint x="690" y="185" as="sourcePoint" />
            <mxPoint x="800" y="480" as="targetPoint" />
            <Array as="points">
              <mxPoint x="425" y="70" />
              <mxPoint x="800" y="70" />
            </Array>
          </mxGeometry>
        </mxCell>
        <mxCell id="C_35eXqd0JHR1h2Q_Rmn-81" value="" style="rounded=0;orthogonalLoop=1;jettySize=auto;html=1;endArrow=oval;endFill=0;sketch=0;sourcePerimeterSpacing=0;targetPerimeterSpacing=0;endSize=10;exitX=1;exitY=0.25;exitDx=0;exitDy=0;" parent="1" source="C_35eXqd0JHR1h2Q_Rmn-57" edge="1">
          <mxGeometry relative="1" as="geometry">
            <mxPoint x="880" y="185" as="sourcePoint" />
            <mxPoint x="800" y="480" as="targetPoint" />
            <Array as="points">
              <mxPoint x="800" y="583" />
            </Array>
          </mxGeometry>
        </mxCell>
        <mxCell id="C_35eXqd0JHR1h2Q_Rmn-82" value="" style="rounded=0;orthogonalLoop=1;jettySize=auto;html=1;endArrow=halfCircle;endFill=0;endSize=6;strokeWidth=1;sketch=0;exitX=0;exitY=0.5;exitDx=0;exitDy=0;" parent="1" source="C_35eXqd0JHR1h2Q_Rmn-7" edge="1">
          <mxGeometry relative="1" as="geometry">
            <mxPoint x="200" y="265" as="sourcePoint" />
            <mxPoint x="-220" y="760" as="targetPoint" />
            <Array as="points">
              <mxPoint x="-220" y="335" />
            </Array>
          </mxGeometry>
        </mxCell>
        <mxCell id="C_35eXqd0JHR1h2Q_Rmn-83" value="" style="rounded=0;orthogonalLoop=1;jettySize=auto;html=1;endArrow=oval;endFill=0;sketch=0;sourcePerimeterSpacing=0;targetPerimeterSpacing=0;endSize=10;exitX=1;exitY=0.5;exitDx=0;exitDy=0;" parent="1" source="C_35eXqd0JHR1h2Q_Rmn-56" edge="1">
          <mxGeometry relative="1" as="geometry">
            <mxPoint x="690" y="605" as="sourcePoint" />
            <mxPoint x="-220" y="760" as="targetPoint" />
            <Array as="points">
              <mxPoint x="880" y="675" />
              <mxPoint x="880" y="990" />
              <mxPoint x="-220" y="990" />
            </Array>
          </mxGeometry>
        </mxCell>
        <mxCell id="C_35eXqd0JHR1h2Q_Rmn-84" value="" style="rounded=0;orthogonalLoop=1;jettySize=auto;html=1;endArrow=halfCircle;endFill=0;endSize=6;strokeWidth=1;sketch=0;exitX=1;exitY=0.5;exitDx=0;exitDy=0;" parent="1" source="C_35eXqd0JHR1h2Q_Rmn-8" edge="1">
          <mxGeometry relative="1" as="geometry">
            <mxPoint x="490" y="265" as="sourcePoint" />
            <mxPoint x="640" y="490" as="targetPoint" />
            <Array as="points">
              <mxPoint x="530" y="335" />
              <mxPoint x="530" y="490" />
            </Array>
          </mxGeometry>
        </mxCell>
        <mxCell id="C_35eXqd0JHR1h2Q_Rmn-85" value="" style="rounded=0;orthogonalLoop=1;jettySize=auto;html=1;endArrow=oval;endFill=0;sketch=0;sourcePerimeterSpacing=0;targetPerimeterSpacing=0;endSize=10;exitX=1;exitY=0.5;exitDx=0;exitDy=0;" parent="1" source="C_35eXqd0JHR1h2Q_Rmn-58" edge="1">
          <mxGeometry relative="1" as="geometry">
            <mxPoint x="455" y="685" as="sourcePoint" />
            <mxPoint x="640" y="490" as="targetPoint" />
            <Array as="points">
              <mxPoint x="730" y="745" />
              <mxPoint x="730" y="490" />
            </Array>
          </mxGeometry>
        </mxCell>
        <mxCell id="C_35eXqd0JHR1h2Q_Rmn-86" value="" style="rounded=0;orthogonalLoop=1;jettySize=auto;html=1;endArrow=halfCircle;endFill=0;endSize=6;strokeWidth=1;sketch=0;exitX=0;exitY=0.25;exitDx=0;exitDy=0;" parent="1" source="C_35eXqd0JHR1h2Q_Rmn-7" edge="1">
          <mxGeometry relative="1" as="geometry">
            <mxPoint x="200" y="345" as="sourcePoint" />
            <mxPoint x="-190" y="730" as="targetPoint" />
            <Array as="points">
              <mxPoint x="-190" y="320" />
            </Array>
          </mxGeometry>
        </mxCell>
        <mxCell id="C_35eXqd0JHR1h2Q_Rmn-87" value="" style="rounded=0;orthogonalLoop=1;jettySize=auto;html=1;endArrow=oval;endFill=0;sketch=0;sourcePerimeterSpacing=0;targetPerimeterSpacing=0;endSize=10;exitX=0;exitY=0.5;exitDx=0;exitDy=0;" parent="1" source="C_35eXqd0JHR1h2Q_Rmn-50" edge="1">
          <mxGeometry relative="1" as="geometry">
            <mxPoint x="80" y="755" as="sourcePoint" />
            <mxPoint x="-190" y="730" as="targetPoint" />
            <Array as="points">
              <mxPoint x="-190" y="825" />
            </Array>
          </mxGeometry>
        </mxCell>
        <mxCell id="mH-T5WSp_6Dl2nH88OjS-1" value="&amp;lt;&amp;lt;component&amp;gt;&amp;gt;&lt;div&gt;StatistikaService&lt;/div&gt;" style="html=1;whiteSpace=wrap;" vertex="1" parent="1">
          <mxGeometry x="870" y="150" width="110" height="50" as="geometry" />
        </mxCell>
        <mxCell id="mH-T5WSp_6Dl2nH88OjS-3" value="" style="rounded=0;orthogonalLoop=1;jettySize=auto;html=1;endArrow=oval;endFill=0;sketch=0;sourcePerimeterSpacing=0;targetPerimeterSpacing=0;endSize=10;exitX=0;exitY=0.5;exitDx=0;exitDy=0;" edge="1" parent="1" source="mH-T5WSp_6Dl2nH88OjS-1">
          <mxGeometry relative="1" as="geometry">
            <mxPoint x="880" y="265" as="sourcePoint" />
            <mxPoint x="770" y="175" as="targetPoint" />
          </mxGeometry>
        </mxCell>
        <mxCell id="mH-T5WSp_6Dl2nH88OjS-4" value="" style="rounded=0;orthogonalLoop=1;jettySize=auto;html=1;endArrow=halfCircle;endFill=0;endSize=6;strokeWidth=1;sketch=0;exitX=1;exitY=0.5;exitDx=0;exitDy=0;" edge="1" parent="1" source="C_35eXqd0JHR1h2Q_Rmn-6">
          <mxGeometry relative="1" as="geometry">
            <mxPoint x="690" y="265" as="sourcePoint" />
            <mxPoint x="770" y="175" as="targetPoint" />
          </mxGeometry>
        </mxCell>
      </root>
    </mxGraphModel>
  </diagram>
</mxfile>
